HIERARCHY
ROOT root
{
	OFFSET 0.000000 0.000000 0.000000
	CHANNELS 6 Xposition Yposition Zposition Zrotation Yrotation Xrotation
	JOINT lhip
	{
		OFFSET 0.058581 -0.082280 -0.017664
		CHANNELS 3 Zrotation Yrotation Xrotation
		JOINT lknee
		{
			OFFSET 0.043451 -0.386469 0.008037
			CHANNELS 3 Zrotation Yrotation Xrotation
			JOINT lankle
			{
				OFFSET -0.014790 -0.426874 -0.037428
				CHANNELS 3 Zrotation Yrotation Xrotation
				JOINT ltoe
				{
					OFFSET 0.041054 -0.060286 0.122042
					CHANNELS 3 Zrotation Yrotation Xrotation
					End Site
					{
						OFFSET 0.000000 0.000000 0.000000
					}
				}
			}
		}
	}
	JOINT rhip
	{
		OFFSET -0.060310 -0.090513 -0.013543
		CHANNELS 3 Zrotation Yrotation Xrotation
		JOINT rknee
		{
			OFFSET -0.043257 -0.383688 -0.004843
			CHANNELS 3 Zrotation Yrotation Xrotation
			JOINT rankle
			{
				OFFSET 0.019056 -0.420046 -0.034562
				CHANNELS 3 Zrotation Yrotation Xrotation
				JOINT rtoe
				{
					OFFSET -0.034840 -0.062106 0.130323
					CHANNELS 3 Zrotation Yrotation Xrotation
					End Site
					{
						OFFSET 0.000000 0.000000 0.000000
					}
				}
			}
		}
	}
	JOINT lowerback
	{
		OFFSET 0.004439 0.124404 -0.038385
		CHANNELS 3 Zrotation Yrotation Xrotation
		JOINT upperback
		{
			OFFSET 0.004488 0.137956 0.026820
			CHANNELS 3 Zrotation Yrotation Xrotation
			JOINT chest
			{
				OFFSET -0.002265 0.056032 0.002855
				CHANNELS 3 Zrotation Yrotation Xrotation
				JOINT lowerneck
				{
					OFFSET -0.013390 0.211636 -0.033468
					CHANNELS 3 Zrotation Yrotation Xrotation
					JOINT upperneck
					{
						OFFSET 0.010113 0.088937 0.050410
						CHANNELS 3 Zrotation Yrotation Xrotation
						End Site
						{
							OFFSET 0.000000 0.000000 0.000000
						}
					}
				}
				JOINT lclavicle
				{
					OFFSET 0.071702 0.114000 -0.018898
					CHANNELS 3 Zrotation Yrotation Xrotation
					JOINT lshoulder
					{
						OFFSET 0.122921 0.045205 -0.019046
						CHANNELS 3 Zrotation Yrotation Xrotation
						JOINT lelbow
						{
							OFFSET 0.255332 -0.015649 -0.022946
							CHANNELS 3 Zrotation Yrotation Xrotation
							JOINT lwrist
							{
								OFFSET 0.265709 0.012698 -0.007375
								CHANNELS 3 Zrotation Yrotation Xrotation
								End Site
								{
									OFFSET 0.000000 0.000000 0.000000
								}
							}
						}
					}
				}
				JOINT rclavicle
				{
					OFFSET -0.082954 0.112472 -0.023707
					CHANNELS 3 Zrotation Yrotation Xrotation
					JOINT rshoulder
					{
						OFFSET -0.113228 0.046853 -0.008472
						CHANNELS 3 Zrotation Yrotation Xrotation
						JOINT relbow
						{
							OFFSET -0.260127 -0.014369 -0.031269
							CHANNELS 3 Zrotation Yrotation Xrotation
							JOINT rwrist
							{
								OFFSET -0.269108 0.006794 -0.006027
								CHANNELS 3 Zrotation Yrotation Xrotation
								End Site
								{
									OFFSET 0.000000 0.000000 0.000000
								}
							}
						}
					}
				}
			}
		}
	}
}
MOTION
Frames: 7
Frame Time: 0.033333
0.111125 -0.596375 0.982051 -86.628993 0.453385 90.854832 -0.553528 0.723321 -0.106784 -4.775046 -10.325731 -1.861331 1.464963 7.334958 -12.641823 0.000000 -0.000000 0.000000 -0.167030 -2.437567 -3.773697 4.759320 -6.887206 4.599244 3.100427 -10.474591 -13.059281 0.000000 -0.000000 0.000000 0.071900 0.125640 11.289869 0.176769 0.027572 -5.830130 1.981428 0.518585 -0.969477 0.776294 5.857865 -3.097039 -1.415336 0.575690 7.226731 -23.619518 1.895404 -0.197841 -53.255001 -7.171441 6.840731 9.779533 -28.999483 2.182503 3.558338 -4.420397 -5.859230 22.268852 4.966457 1.291118 50.689548 6.323433 16.493350 -5.429429 27.958748 7.431763 0.641915 3.430841 2.407399 
0.112759 -0.596092 0.981934 -86.535151 0.534136 90.848979 -0.574245 0.530177 -0.379012 -4.656124 -10.339155 -1.594543 1.285165 7.579398 -12.806712 0.000000 -0.000000 0.000000 -0.180627 -2.260842 -3.992275 4.967613 -7.094140 4.794681 3.358629 -10.593014 -13.098118 0.000000 -0.000000 0.000000 0.212555 0.112674 11.680764 0.138440 0.078795 -6.223916 2.039556 0.543633 -0.617179 0.917227 5.947984 -3.475214 -1.715842 0.774294 7.067781 -23.709988 1.882851 -0.510150 -53.342951 -7.164174 6.954200 9.936354 -28.741856 2.189562 3.538805 -4.571331 -5.969633 22.100199 5.127961 1.113640 50.820692 6.760381 16.609860 -5.761454 27.984651 7.279974 0.419777 3.455055 2.155499 
0.114271 -0.594868 0.982169 -86.558281 0.467444 90.907054 -0.614577 0.548738 -0.726235 -4.565282 -10.251393 -1.269155 1.540414 7.477145 -12.882482 0.000000 -0.000000 0.000000 -0.109299 -2.349366 -4.337122 4.765227 -7.160821 5.089738 3.439659 -10.450131 -13.147986 0.000000 -0.000000 0.000000 -0.119234 0.185023 11.798729 0.198388 0.099773 -6.248582 2.110690 0.594253 -0.440274 1.197825 6.205843 -3.632567 -1.749285 0.686000 7.150138 -23.499953 1.713006 -0.526757 -53.463805 -7.197816 7.011833 10.054657 -27.986657 2.071483 3.647224 -4.663467 -5.888077 22.272926 5.186973 0.939259 51.684969 7.331018 16.370262 -6.903929 27.523147 6.570284 -0.234548 3.586009 2.432811 
0.116533 -0.592936 0.982976 -86.613301 0.598794 91.023881 -0.290599 0.619502 -1.042304 -4.601389 -10.089816 -1.325063 1.300269 7.384863 -12.643605 0.000000 -0.000000 0.000000 0.330028 -2.290670 -4.672129 4.390796 -7.147767 5.136445 3.332616 -10.363703 -12.960015 0.000000 -0.000000 0.000000 -0.363150 0.144915 11.990238 0.276847 0.120419 -6.033931 2.198536 0.660573 -0.481070 1.367995 6.456480 -3.791370 -1.665380 0.655680 7.387037 -23.560690 1.433411 -0.502869 -53.208321 -7.055838 6.934565 10.039478 -26.666585 1.964727 3.323535 -4.563403 -5.452781 22.278402 5.365225 0.975127 51.604207 7.726559 16.385921 -6.762022 27.701976 6.352768 -0.189325 3.823900 2.269795 
0.117215 -0.592325 0.983215 -86.619605 0.636800 91.095641 -0.173151 0.599163 -1.162732 -4.633587 -10.058629 -1.359944 1.255912 7.343894 -12.596462 0.000000 -0.000000 0.000000 0.386290 -2.273437 -4.699313 4.441731 -7.128413 4.947473 3.331427 -10.371168 -12.810830 0.000000 -0.000000 0.000000 -0.370105 0.145937 12.053364 0.266042 0.112758 -6.100406 2.196435 0.630055 -0.411425 1.499681 6.395364 -4.134067 -1.804691 0.754246 7.649888 -23.725366 1.382801 -0.522052 -53.000833 -7.011515 6.948247 10.094730 -26.142641 1.761098 3.588652 -4.655629 -5.275106 22.302265 5.352142 0.941108 51.520919 7.744830 16.592370 -6.645970 27.894636 6.347948 -0.302184 3.926110 2.133635 
0.118576 -0.591256 0.983238 -86.677006 0.709383 91.207239 -0.008055 0.631863 -1.389749 -4.615942 -10.161980 -1.402652 1.171788 7.266461 -12.603676 0.000000 -0.000000 0.000000 0.516096 -2.223891 -4.882206 4.458658 -7.244373 4.866737 3.318392 -10.351582 -12.739097 0.000000 -0.000000 0.000000 -0.388856 0.201543 12.225220 0.164067 0.198360 -6.109433 2.103298 0.603722 -0.465107 1.532939 6.491746 -3.642698 -1.472397 0.844032 7.530407 -23.887314 1.139656 -0.440537 -52.664660 -6.902409 6.898735 10.144038 -25.312700 1.344053 3.689457 -4.535588 -4.894351 22.394883 5.366233 1.003898 51.406564 7.536479 16.660106 -6.447284 28.366088 6.578889 -0.267298 3.864260 1.951649 
0.120224 -0.590465 0.983049 -86.794987 0.784708 91.311111 0.035334 0.570400 -1.597461 -4.445123 -10.139917 -1.512621 1.233072 7.482145 -12.502156 0.000000 -0.000000 0.000000 0.702209 -2.088789 -5.148187 4.384159 -7.156251 4.859693 3.279574 -10.392038 -12.662538 0.000000 -0.000000 0.000000 -0.334805 0.158302 12.457971 0.065423 0.250744 -6.122380 1.938296 0.670450 -0.473295 1.787443 6.458982 -3.595209 -1.201569 0.914870 7.557458 -24.273725 1.170667 -0.506251 -52.274070 -6.896894 6.699697 10.451820 -24.778157 0.849294 3.451639 -4.351069 -4.545743 22.441594 5.367607 1.166096 51.257431 7.412198 16.753910 -6.241148 28.668963 6.500850 0.026181 3.939197 1.896868 
